# xmcd CD database file
#
# Track frame offsets:
#	150
#	18212
#	33285
#	51727
#	77500
#	90870
#	105337
#	130445
#	149172
#	163855
#	174857
#	186842
#
# Disc length: 2667 seconds
#
# Revision: 1
# Processed by: cddbd v1.4PL0 Copyright (c) Steve Scherf et al.
# Submitted via: Feurio! 1.64 - http://www.feurio.com
#
DISCID=970a690c
DTITLE=Various Artist - The Story Of Blues - The Disciples
DYEAR=1997
DGENRE=
TTITLE0=Taj Mahal - Frankie And Albert
TTITLE1=Fabulous Thunderbirds - Tuff Enuff
TTITLE2=Jonny Winter - Cheap Tequila
TTITLE3=Gary Moore - Boogie My Way Back Home
TTITLE4=Keb'Mo - Every Morning
TTITLE5=Chicken Shack - I'd Rather Go Blind
TTITLE6=Stevie Ray Vaughan - Wall Of Denial
TTITLE7=Georgie Fame - St. James Infirmary
TTITLE8=Taj Mahal - Good Morning Miss Brown
TTITLE9=Mose Allison - I Love The Life I Live
TTITLE10=Michael Bloomfield - I Got My Mojo Working
TTITLE11=Fleetwood Mac - Shake Your Money Maker
EXTD=
EXTT0=
EXTT1=
EXTT2=
EXTT3=
EXTT4=
EXTT5=
EXTT6=
EXTT7=
EXTT8=
EXTT9=
EXTT10=
EXTT11=
PLAYORDER=
